PathFileType	4	(X/Y/Z)	/Users/itak/Documents/Research/Walk-IL/dataset/trc/00556_00009.trc
DataRate	CameraRate	NumFrames	NumMarkers	Units	OrigDataRate	OrigDataStartFrame	OrigNumFrames
100.000000	100.000000	4	55	mm	100.000000	278	318
Frame#	Time	RPSI			LPSI			L3			STRN			T10			C7			CLAV			RBAK			LBAK			LSHO			LUPA			LAEL			LAOL			LWTS			LWPS			LFRA			LIFD			LHPS			LHTS			RSHO			RUPA			RAEL			RAOL			RWTS			RWPS			RFRA			RIFD			RHTS			RHPS			RBHD			LFHD			RFHD			LBHD			LHIP			RHIP			RASI			LASI			LKNE			LTHI			LANK			LTIP			LTOE			LMT1			LMT5			LHEE			RKNE			RTHI			RANK			RTIP			RTOE			RMT1			RMT5			RHEE			*53			*54			
		X1	Y1	Z1	X2	Y2	Z2	X3	Y3	Z3	X4	Y4	Z4	X5	Y5	Z5	X6	Y6	Z6	X7	Y7	Z7	X8	Y8	Z8	X9	Y9	Z9	X10	Y10	Z10	X11	Y11	Z11	X12	Y12	Z12	X13	Y13	Z13	X14	Y14	Z14	X15	Y15	Z15	X16	Y16	Z16	X17	Y17	Z17	X18	Y18	Z18	X19	Y19	Z19	X20	Y20	Z20	X21	Y21	Z21	X22	Y22	Z22	X23	Y23	Z23	X24	Y24	Z24	X25	Y25	Z25	X26	Y26	Z26	X27	Y27	Z27	X28	Y28	Z28	X29	Y29	Z29	X30	Y30	Z30	X31	Y31	Z31	X32	Y32	Z32	X33	Y33	Z33	X34	Y34	Z34	X35	Y35	Z35	X36	Y36	Z36	X37	Y37	Z37	X38	Y38	Z38	X39	Y39	Z39	X40	Y40	Z40	X41	Y41	Z41	X42	Y42	Z42	X43	Y43	Z43	X44	Y44	Z44	X45	Y45	Z45	X46	Y46	Z46	X47	Y47	Z47	X48	Y48	Z48	X49	Y49	Z49	X50	Y50	Z50	X51	Y51	Z51	X52	Y52	Z52	X53	Y53	Z53	X54	Y54	Z54	X55	Y55	Z55	

279	2.78	1438.059326171875	998.3232421875	500.025390625	1473.788818359375	1005.168762207031	371.8251037597656	1464.62060546875	1107.775268554688	432.6015930175781	1701.1240234375	1291.85498046875	486.6489868164062	1461.465576171875	1234.089721679688	426.285400390625	1521.91552734375	1508.12060546875	445.9241333007812	1686.736938476562	1402.670654296875	481.5658874511719	1425.107543945312	1387.658081054688	511.5366821289062	1504.43310546875	1456.876098632812	349.4189758300781	1621.084106445312	1481.85107421875	301.2661743164062	1643.807006835938	1372.075073242188	208.9493865966797	1713.780883789062	1198.865478515625	160.1256103515625	1643.029296875	1126.259643554688	164.5376129150391	1890.727294921875	1174.920654296875	328.7786254882812	1939.565795898438	1135.021484375	269.3012390136719	1785.300659179688	1179.276245117188	188.8347930908203	1976.148193359375	1091.638305664062	390.2096252441406	1986.222534179688	1127.434326171875	307.54541015625	1966.3642578125	1175.97802734375	351.7767028808594	1537.418823242188	1475.812866210938	607.4151000976562	1494.79296875	1421.15087890625	668.6962890625	1433.345947265625	1153.123657226562	742.593994140625	1381.272094726562	1130.377319335938	713.0910034179688	1616.629272460938	982.2408447265625	721.6145629882812	1571.467651367188	942.5776977539062	776.9625244140625	1451.964721679688	1100.860107421875	752.6151123046875	1701.413208007812	839.819580078125	739.1895141601562	1677.67919921875	919.7503051757812	753.5520629882812	1621.737060546875	890.574462890625	789.4635620117188	1638.963623046875	1685.976318359375	537.7977294921875	1816.458129882812	1653.765991210938	435.6468200683594	1772.834716796875	1660.40478515625	574.9657592773438	1695.435668945312	1676.381713867188	383.1225891113281	1636.50927734375	941.0327758789062	280.0150451660156	1534.723876953125	934.8953247070312	649.7012939453125	1626.781005859375	975.1242065429688	614.4177856445312	1696.295532226562	971.8635864257812	347.6466064453125	1744.52685546875	511.9238891601562	376.5732116699219	1713.17919921875	673.9212646484375	328.6506958007812	1641.605834960938	41.10029602050781	384.838134765625	1680.656860351562	259.6044311523438	372.7991333007812	1838.750366210938	36.80076599121094	491.5743408203125	1756.502197265625	49.3179817199707	505.8253479003906	1761.777221679688	35.64344787597656	399.2213134765625	1564.203369140625	47.89462661743164	420.7284240722656	1673.761108398438	507.5206909179688	632.2481689453125	1587.3427734375	789.0230102539062	654.647705078125	1555.48681640625	41.61018371582031	590.8717041015625	1672.718505859375	359.6963195800781	620.2056274414062	1781.746948242188	39.3196907043457	592.3325805664062	1725.13525390625	43.91226577758789	539.6190795898438	1682.657958984375	41.8021125793457	634.7892456054688	1513.289184570312	31.68319702148438	526.3673095703125	nan	nan	nan	nan	nan	nan	
280	2.79	1442.2685546875	998.8797607421875	501.5818481445312	1477.96826171875	1005.567993164062	373.3985595703125	1468.921630859375	1108.056762695312	434.3761596679688	1705.3896484375	1291.985595703125	487.5134887695312	1465.722900390625	1234.359985351562	428.1881713867188	1526.005126953125	1508.189453125	447.9917602539062	1691.015380859375	1402.83642578125	482.4803771972656	1429.5146484375	1387.8759765625	513.98974609375	1508.025512695312	1457.067260742188	351.5209350585938	1624.310546875	1481.913208007812	302.4158325195312	1645.5419921875	1371.83056640625	209.8909759521484	1713.3515625	1197.847534179688	160.4131317138672	1641.856689453125	1126.082763671875	165.6705474853516	1892.316528320312	1171.23681640625	326.5759582519531	1939.883666992188	1131.205322265625	266.079345703125	1785.041870117188	1177.325073242188	188.1216735839844	1977.476440429688	1086.831787109375	386.754150390625	1986.837890625	1122.451782226562	304.1365966796875	1968.275390625	1171.271728515625	348.5035095214844	1542.339599609375	1475.928833007812	609.2246704101562	1500.201782226562	1421.167724609375	670.755126953125	1439.767211914062	1152.926025390625	744.8153076171875	1387.67626953125	1130.141967773438	715.5474243164062	1622.79296875	981.8512573242188	722.899169921875	1578.02734375	942.528076171875	778.79052734375	1458.414672851562	1100.675048828125	754.8466186523438	1707.457153320312	839.3941650390625	740.4270629882812	1683.966430664062	919.364990234375	754.5654907226562	1628.389404296875	890.475830078125	790.8955688476562	1642.610473632812	1686.559936523438	538.4494018554688	1820.07763671875	1654.61279296875	436.157470703125	1776.550415039062	1661.585693359375	575.404541015625	1698.895263671875	1676.51904296875	383.6628723144531	1640.537109375	941.0285034179688	281.5029602050781	1538.759765625	934.950927734375	651.2159423828125	1630.859985351562	975.059814453125	615.970703125	1700.441284179688	971.7276000976562	349.1937866210938	1746.165649414062	511.3194885253906	377.3470764160156	1715.68896484375	673.5177612304688	329.8013305664062	1641.494995117188	40.89459228515625	384.8597717285156	1681.229125976562	259.3328552246094	373.1195983886719	1838.654052734375	36.79036712646484	491.5244750976562	1756.408935546875	49.2952880859375	505.8292541503906	1761.743408203125	35.67910385131836	399.1995544433594	1564.068359375	47.44390487670898	420.8305969238281	1673.783325195312	506.4206237792969	632.1800537109375	1591.258666992188	789.0032958984375	656.163818359375	1555.230102539062	41.10502624511719	590.4193115234375	1672.6962890625	358.6504211425781	619.9301147460938	1781.675903320312	39.32897186279297	592.3693237304688	1725.035400390625	43.80733108520508	539.4654541015625	1682.631591796875	41.86729431152344	634.48486328125	1513.2294921875	30.71198081970215	525.8655395507812	nan	nan	nan	nan	nan	nan	
281	2.8	1446.225341796875	999.5242919921875	502.9631042480469	1481.982666015625	1006.017211914062	374.8088684082031	1473.0341796875	1108.430053710938	435.9967956542969	1709.543090820312	1292.055297851562	488.3981628417969	1469.851928710938	1234.689575195312	430.0032043457031	1530.083862304688	1508.278198242188	450.0703735351562	1695.231567382812	1402.947509765625	483.4266967773438	1433.832275390625	1388.15966796875	516.4425659179688	1511.613647460938	1457.3115234375	353.64697265625	1627.533569335938	1481.981811523438	303.6172485351562	1647.168701171875	1371.62451171875	210.8736724853516	1712.589111328125	1196.762329101562	160.6540832519531	1640.20947265625	1126.014038085938	166.7619476318359	1893.537963867188	1166.8251953125	324.2038879394531	1939.676879882812	1126.587768554688	262.6666564941406	1784.422241210938	1175.084716796875	187.3029174804688	1978.415405273438	1080.9794921875	383.1430969238281	1986.905517578125	1116.5283203125	300.4139404296875	1969.797485351562	1165.519653320312	345.0748291015625	1547.223876953125	1476.02978515625	611.0484008789062	1505.568481445312	1421.16748046875	672.7879028320312	1446.146118164062	1152.716186523438	746.9908447265625	1394.021362304688	1129.874755859375	717.9476928710938	1628.984008789062	981.508544921875	724.1541137695312	1584.605590820312	942.4820556640625	780.548583984375	1464.841186523438	1100.470947265625	757.0138549804688	1713.535888671875	838.9800415039062	741.6656494140625	1690.283325195312	919.019287109375	755.5548706054688	1635.060302734375	890.3800659179688	792.2562255859375	1646.115966796875	1687.071899414062	539.1261596679688	1823.618896484375	1655.475463867188	436.7671813964844	1780.115478515625	1662.72998046875	575.849365234375	1702.28466796875	1676.604614257812	384.284912109375	1644.434326171875	940.9671020507812	282.9933166503906	1542.33203125	935.1022338867188	652.6451416015625	1634.581298828125	975.0769653320312	617.5415649414062	1704.409912109375	971.5270385742188	350.7503967285156	1747.709594726562	510.6870727539062	378.1374816894531	1718.072143554688	673.0681762695312	330.9590148925781	1641.372802734375	40.60309600830078	384.8606872558594	1681.75439453125	259.0298461914062	373.3911743164062	1838.525512695312	36.78757095336914	491.4504089355469	1756.287841796875	49.28115844726562	505.8137817382812	1761.703247070312	35.71868896484375	399.15625	1563.900146484375	46.85169219970703	420.9169921875	1673.947509765625	505.593994140625	632.3699951171875	1594.81640625	789.0652465820312	657.6980590820312	1555.080444335938	40.74136734008789	590.1473388671875	1672.812133789062	357.8512878417969	619.8929443359375	1781.701782226562	39.34528732299805	592.4317626953125	1725.014892578125	43.74848556518555	539.3928833007812	1682.758056640625	41.83679962158203	634.2808227539062	1513.244873046875	30.02081871032715	525.5244140625	nan	nan	nan	nan	nan	nan	
282	2.81	1449.922607421875	1000.218994140625	504.1869506835938	1485.826416015625	1006.499145507812	376.0617065429688	1476.981201171875	1108.876220703125	437.4637756347656	1713.589111328125	1292.059814453125	489.3098754882812	1473.857788085938	1235.06103515625	431.7313537597656	1534.144287109375	1508.388793945312	452.1283874511719	1699.388427734375	1402.997436523438	484.4026489257812	1438.059692382812	1388.485717773438	518.8633422851562	1515.208618164062	1457.589965820312	355.7784423828125	1630.769653320312	1482.057006835938	304.8519897460938	1648.7138671875	1371.447265625	211.8913421630859	1711.540649414062	1195.619995117188	160.8395843505859	1638.145874023438	1126.054077148438	167.8200073242188	1894.380859375	1161.730102539062	321.6974182128906	1938.943603515625	1121.202026367188	259.1356811523438	1783.472045898438	1172.580322265625	186.3886108398438	1978.938232421875	1074.151977539062	379.4183654785156	1986.424438476562	1109.762817382812	296.3908996582031	1970.903198242188	1158.792358398438	341.5324401855469	1552.060668945312	1476.111572265625	612.8653564453125	1510.865600585938	1421.148681640625	674.7733764648438	1452.450927734375	1152.505859375	749.12646484375	1400.269897460938	1129.583984375	720.299560546875	1635.181884765625	981.2368774414062	725.3573608398438	1591.193725585938	942.4589233398438	782.2278442382812	1471.215209960938	1100.259887695312	759.1192626953125	1719.642456054688	838.630615234375	742.8524169921875	1696.630615234375	918.7444458007812	756.4931030273438	1641.741455078125	890.3078002929688	793.5382690429688	1649.47412109375	1687.50439453125	539.8033447265625	1827.08837890625	1656.357788085938	437.4889831542969	1783.525756835938	1663.860717773438	576.3411254882812	1705.622314453125	1676.635864257812	384.9811706542969	1648.18603515625	940.8414306640625	284.4903259277344	1545.437133789062	935.3400268554688	654.0068969726562	1637.956298828125	975.1390991210938	619.115478515625	1708.205322265625	971.25927734375	352.302978515625	1749.146362304688	510.0182495117188	378.9469604492188	1720.314453125	672.5659790039062	332.0933227539062	1641.236328125	40.23209762573242	384.8608093261719	1682.230834960938	258.6915588378906	373.6267395019531	1838.372924804688	36.80084228515625	491.3465576171875	1756.1416015625	49.27125549316406	505.78369140625	1761.65380859375	35.75989532470703	399.0979309082031	1563.697631835938	46.14118194580078	420.9915771484375	1674.264282226562	505.0054321289062	632.8316650390625	1598.028442382812	789.1720581054688	659.235107421875	1555.000732421875	40.48310852050781	590.0426635742188	1673.05517578125	357.2574157714844	620.1034545898438	1781.7890625	39.3560791015625	592.5045166015625	1725.046264648438	43.72375106811523	539.4013671875	1682.978759765625	41.73146438598633	634.1978759765625	1513.300659179688	29.58182716369629	525.331298828125	nan	nan	nan	nan	nan	nan	
